<?xml version="1.0" encoding="UTF-8"?>
<!DOCTYPE svg PUBLIC "-//W3C//DTD SVG 1.1//EN" "http://www.w3.org/Graphics/SVG/1.1/DTD/svg11.dtd">
<!-- Creator: CorelDRAW -->
<svg xmlns="http://www.w3.org/2000/svg" xml:space="preserve" width="90.299mm" height="31.526mm" version="1.1" style="shape-rendering:geometricPrecision; text-rendering:geometricPrecision; image-rendering:optimizeQuality; fill-rule:evenodd; clip-rule:evenodd"
viewBox="0 0 9029.9 3152.6"
 xmlns:xlink="http://www.w3.org/1999/xlink"
 xmlns:xodm="http://www.corel.com/coreldraw/odm/2003">
 <defs>
  <style type="text/css">
   <![CDATA[
    .str1 {stroke:#355C7D;stroke-width:20;stroke-miterlimit:22.9256}
    .str2 {stroke:#355C7D;stroke-width:20;stroke-miterlimit:22.9256}
    .str0 {stroke:#355C7D;stroke-width:7.62;stroke-miterlimit:22.9256}
    .fil0 {fill:#355C7D;fill-rule:nonzero}
    .fil3 {fill:#355C7D;fill-rule:nonzero}
    .fil2 {fill:red;fill-rule:nonzero}
    .fil1 {fill:white;fill-rule:nonzero}
   ]]>
  </style>
 </defs>
 <g id="Camada_x0020_1">
  <metadata id="CorelCorpID_0Corel-Layer"/>
  <g id="_2313282375376">
   <path class="fil0 str0" d="M3885.07 2570.62c-74.75,32.5 -190.46,61.43 -347.12,87.1 -143.34,23.73 -260.99,35.76 -352.98,35.76 -155.36,0 -233.04,-68.26 -233.04,-204.77 0,11.05 6.18,-89.7 18.53,-301.62 16.25,-275.29 24.38,-581.79 24.38,-919.48 0,-36.08 12.67,-66.96 37.7,-92.31 25.03,-25.35 56.55,-38.03 94.58,-38.03 38.03,0 69.56,12.68 94.91,38.03 25.35,25.35 38.02,56.23 38.02,92.31 0,338.34 -8.45,650.04 -25.02,935.08 -5.85,50.71 -11.7,128.71 -17.88,233.37 150.49,-2.6 343.22,-38.68 578.54,-108.56 14.63,-4.22 28.6,-6.5 41.93,-6.5 39.98,0 72.15,14.63 97.18,43.55 22.1,26.01 33.15,55.26 33.15,87.43 0,54.28 -27.63,93.94 -82.88,118.64zm397.18 -1109.63c-40.95,0 -76.05,-13.65 -105.96,-40.95 -29.9,-27.63 -44.85,-61.1 -44.85,-100.43 0,-39.65 14.95,-72.81 44.85,-100.43 29.91,-27.3 65.01,-40.96 105.96,-40.96 40.63,0 75.73,13.66 105.31,40.96 29.57,27.62 44.2,60.78 44.2,100.43 0,39.33 -14.63,72.8 -44.2,100.43 -29.58,27.3 -64.68,40.95 -105.31,40.95zm81.26 698.15c0,36.4 0.97,94.58 2.92,174.54 1.95,79.95 2.93,138.13 2.93,174.53 0,36.73 -12.35,67.28 -37.06,91.01 -25.02,23.73 -56.55,35.75 -94.58,35.75 -38.02,0 -69.55,-12.02 -94.58,-35.75 -24.7,-23.73 -37.05,-54.28 -37.05,-91.01 0,-36.4 -0.98,-94.58 -2.93,-174.53 -1.95,-79.96 -2.92,-138.14 -2.92,-174.54 0,-56.55 2.92,-127.41 8.77,-212.56 5.85,-85.16 8.78,-156.01 8.78,-212.57 0,-36.73 12.35,-67.28 37.05,-91 25.03,-23.73 56.56,-35.76 94.58,-35.76 38.03,0 69.56,12.03 94.59,35.76 24.7,23.72 37.05,54.27 37.05,91 0,56.56 -2.93,127.41 -8.78,212.57 -5.85,85.15 -8.77,156.01 -8.77,212.56zm995.22 514.83c-78.33,0 -121.89,-38.35 -130.66,-115.38 -8.45,-65.33 -16.9,-130.98 -25.35,-197.29 -9.1,-69.88 -13.66,-135.53 -13.66,-196.96 0,-16.58 0.98,-44.85 3.26,-84.83 1.95,-39.98 2.92,-68.25 2.92,-84.83 0,-4.55 0.65,-15.93 1.95,-33.8 0.98,-18.2 1.63,-33.16 1.63,-44.53 0,-52.65 -12.68,-78.98 -37.71,-78.98 -53.95,0 -106.93,35.1 -158.93,104.98 -51.68,69.88 -92.31,158.61 -121.56,265.87 -1.3,21.45 -3.9,50.05 -8.13,86.13 -3.57,29.25 -5.2,57.85 -5.2,85.8 0,18.21 -1.95,45.83 -5.85,82.56 -3.9,36.73 -5.85,64.03 -5.85,82.56 0,37.05 -12.67,67.6 -37.7,91.98 -25.03,24.37 -56.55,36.72 -94.58,36.72 -38.03,0 -69.56,-12.02 -94.26,-36.4 -24.7,-24.05 -37.05,-54.93 -37.05,-91.65 0,-18.21 -1.95,-45.51 -5.53,-81.91 -3.9,-36.4 -5.85,-64.03 -5.85,-81.9 0,-62.08 4.23,-148.54 12.68,-259.05 8.45,-110.5 12.68,-196.96 12.68,-259.04 0,-19.5 -0.98,-48.43 -2.93,-86.78 -1.95,-38.35 -2.92,-66.95 -2.92,-85.81 0,-36.07 12.67,-65.98 38.35,-89.7 25.67,-23.73 57.2,-35.43 94.9,-35.43 82.89,0 127.41,49.73 132.94,148.86l0.97 10.73c92.31,-93.28 189.49,-140.09 292.2,-140.09 119.28,0 201.84,50.06 247.34,150.49 30.23,67.28 45.5,168.03 45.5,302.27l0 67.6c-0.65,29.25 -0.97,49.73 -0.97,61.76 0,49.72 6.82,113.43 20.15,191.76 13.32,78 19.83,141.38 19.83,190.46 0,35.43 -12.68,65.01 -38.03,88.73 -25.68,23.4 -56.88,35.1 -94.58,35.1zm1073.21 -29.25c-50.05,0 -88.08,-24.05 -114.08,-72.48 -30.87,-57.85 -77.35,-126.11 -139.43,-204.76 -96.53,-122.53 -147.56,-187.54 -153.09,-195.34 -50.7,37.7 -92.63,66.31 -125.46,85.81 -6.17,88.4 -9.42,172.58 -9.42,253.19 0,37.05 -12.35,67.28 -37.05,91.65 -25.03,24.06 -56.23,36.08 -94.26,36.08 -89.38,0 -134.23,-53.3 -134.23,-159.91 0,-50.38 3.57,-125.46 10.72,-225.24 7.15,-100.11 10.73,-175.19 10.73,-225.24 0,-92.3 1.3,-197.29 4.22,-315.92 2.93,-118.31 4.23,-222.96 4.23,-313.65 0,-27.3 -1.3,-59.8 -4.23,-96.85 -2.92,-37.05 -4.22,-69.23 -4.22,-96.53 0,-37.06 12.35,-67.28 37.05,-91.01 24.38,-23.73 55.9,-35.75 93.61,-35.75 38.02,0 69.23,12.02 93.6,35.75 24.7,23.73 37.05,53.95 37.05,91.01 0,27.95 1.63,60.78 4.88,99.13 3.25,38.03 4.88,70.85 4.88,98.8 0,75.73 -1.63,165.12 -5.2,268.8 -3.58,98.8 -5.21,187.21 -4.56,264.57 86.14,-66.63 217.44,-187.87 393.93,-363.7 27.95,-27.96 59.48,-41.93 94.91,-41.93 35.75,0 66.95,13 94.25,39 27.31,26 40.96,56.23 40.96,90.68 0,28.93 -12.35,57.21 -37.06,84.51 -75.08,83.85 -164.13,171.61 -267.49,262.94l197.94 255.47c95.88,127.41 143.66,212.56 143.66,255.14 0,35.1 -13.98,64.68 -41.93,89.06 -27.63,24.37 -59.48,36.72 -94.91,36.72zm1255.89 -204.11c-46.15,63.05 -102.06,115.38 -167.71,157.31 -79.96,50.7 -162.19,76.05 -246.69,76.05 -162.19,0 -282.45,-30.55 -361.43,-91.65 -166.41,-129.04 -249.62,-353.3 -249.62,-672.47 0,-30.55 1.31,-76.06 4.23,-136.51 2.6,-60.45 4.23,-105.96 4.23,-136.51 0,-24.38 0.32,-60.45 1.62,-108.88 0.98,-48.43 1.63,-84.51 1.63,-108.88 0,-50.06 9.1,-96.86 27.62,-141.39 25.03,-58.5 59.81,-87.75 104.66,-87.75 35.1,0 65.98,11.05 92.63,33.47 29.58,23.73 44.2,53.96 44.2,91.33 0,35.43 -0.32,89.06 -0.97,160.56 -0.65,71.83 -0.98,125.79 -0.98,161.54 0,29.9 -1.62,75.08 -4.87,135.21 -3.25,60.13 -4.88,105.31 -4.88,134.88 0,96.21 11.38,185.92 34.46,268.47 26.65,98.48 65.65,167.39 117,206.72 26.98,20.47 90.36,31.2 190.79,32.5 167.71,2.6 280.82,-140.09 339.32,-428.06 30.56,-149.18 45.83,-358.5 45.83,-628.26 0,-35.43 10.4,-69.56 31.53,-102.71 28.28,-43.88 68.9,-65.65 121.56,-65.65 43.22,0 75.73,15.92 97.18,47.45 16.57,23.73 24.7,49.73 24.7,78.33 0,250.59 -11.7,445.93 -35.1,586.34 -35.76,216.46 -105.96,395.87 -210.94,538.56zm874.63 221.66c-54.6,0 -112.13,-6.5 -172.59,-19.17l0 388.72c0,37.06 -12.35,67.28 -37.05,91.66 -25.02,24.05 -56.55,36.08 -94.58,36.08 -38.03,0 -69.55,-12.03 -94.58,-36.08 -24.7,-24.05 -37.05,-54.6 -37.05,-91.33 0,-29.9 0.65,-148.21 1.95,-355.25 1.3,-153.41 1.3,-278.87 0,-376.05 -1.95,-136.83 -6.18,-254.82 -13,-353.95 -9.43,-136.51 -14.3,-198.91 -14.3,-187.54 0,-52.65 11.7,-97.83 35.42,-135.21 27.3,-42.57 64.03,-63.7 110.51,-63.7 35.75,0 65.65,12.03 89.71,36.08 24.37,23.72 36.4,52.65 36.4,86.13l-0.98 9.75c42.58,-24.38 85.16,-42.25 128.06,-53.95 42.58,-11.71 85.48,-17.56 128.71,-17.56 145.93,0 252.22,61.76 319.5,185.59 50.05,93.28 75.08,214.19 75.08,362.73 0,138.78 -39.66,254.16 -119.29,345.49 -84.83,98.49 -198.91,147.56 -341.92,147.56zm65.98 -787.85c-39.98,0 -80.61,9.43 -121.88,28.28 -41.28,18.52 -82.56,46.8 -124.49,84.18 7.8,131.31 11.7,262.62 11.7,394.25 56.23,18.53 112.79,27.63 169.02,27.63 65.33,0 115.38,-23.08 150.16,-69.56 31.52,-42.25 47.45,-98.8 47.45,-169.98 0,-85.81 -3.9,-145.29 -11.38,-178.44 -18.52,-77.68 -58.5,-116.36 -120.58,-116.36z"/>
   <path id="path2475" class="fil0 str1" d="M2650.15 1509.44l-1569.77 -432.1c-91.71,-31.92 -181.28,-13.79 -268.77,54.48l-763.59 771.85c-5,4.4 -9.69,9.1 -14.06,14.04 10.16,43.9 42.14,83.38 95.93,118.41l1607.4 507.87c160.68,23.09 266.8,13.68 318.51,-28.22l640.48 -965.67c-11.87,-16.65 -27.26,-30.19 -46.15,-40.66l0.02 0zm-2648.31 662.94l108.97 352.79 1586.34 616.78c114.1,41.08 226.17,10.27 336.18,-92.34l562.35 -893.8 130.23 -478.26c0.23,-4.7 0.37,-9.32 0.41,-13.85l-546.16 893.56c-79.12,126.4 -205.4,169.73 -378.76,129.97l-1807.67 -558.48 8.11 43.63z"/>
   <path id="path2483" class="fil1" d="M2175.49 1710.16c0,-248.74 -377.16,-450.39 -842.43,-450.39 -465.22,0 -842.37,201.65 -842.37,450.39 0,248.74 377.15,450.39 842.37,450.39 465.27,0 842.43,-201.65 842.43,-450.39z"/>
   <path id="path2491" class="fil0 str0" d="M2166.94 1761c0,-248.74 -377.15,-450.33 -842.37,-450.33 -465.27,0 -842.43,201.59 -842.43,450.33 0,248.74 377.15,450.39 842.43,450.39 465.22,0 842.37,-201.65 842.37,-450.39z"/>
   <path id="path2499" class="fil2" d="M2025.09 2239.9c0,-76.52 -94.07,-138.51 -210.14,-138.51 -116.06,0 -210.13,61.99 -210.13,138.51 0,76.47 94.07,138.51 210.13,138.51 116.07,0 210.14,-62.04 210.14,-138.51z"/>
   <path id="path2507" class="fil1" d="M1605.06 2233.09c-0.18,2.25 -0.24,4.5 -0.24,6.81 0,76.47 94.08,138.51 210.14,138.51 115.19,0 209.09,-61.12 210.13,-136.83l0 108.32c-124.43,125.59 -348.07,129.11 -435.73,-14.08l15.7 -102.73z"/>
   <path id="path2511" class="fil1" d="M2022.84 1705.89c0,-205.28 -319.33,-371.73 -713.27,-371.73 -393.95,0 -713.27,166.45 -713.27,371.73 0,205.28 319.32,371.72 713.27,371.72 393.94,0 713.27,-166.44 713.27,-371.72z"/>
   <path id="path2519" class="fil0" d="M2009.62 1737.92c0,-194.9 -313.26,-352.86 -699.65,-352.86 -386.38,0 -699.59,157.96 -699.59,352.86 0,194.89 313.21,352.91 699.59,352.91 386.39,0 699.65,-158.02 699.65,-352.91z"/>
   <path id="path2527" class="fil1" d="M1968.12 1779.42c0,-182.38 -289.37,-330.24 -646.38,-330.24 -356.95,0 -646.38,147.86 -646.38,330.24 0,182.37 289.43,330.23 646.38,330.23 357.01,0 646.38,-147.86 646.38,-330.23z"/>
   <path id="path2535" class="fil0" d="M1907.87 1740.28c0,-163.38 -263.68,-295.83 -588.89,-295.83 -325.27,0 -588.9,132.45 -588.9,295.83 0,163.39 263.63,295.84 588.9,295.84 325.21,0 588.89,-132.45 588.89,-295.84z"/>
   <path id="path2543" class="fil1" d="M1912.55 1680.44c0,-160.56 -260.46,-290.7 -581.8,-290.7 -321.35,0 -581.86,130.14 -581.86,290.7 0,160.55 260.51,290.69 581.86,290.69 321.34,0 581.8,-130.14 581.8,-290.69z"/>
   <path id="path2551" class="fil0" d="M1856.97 1664.45c0,-154.32 -243.84,-279.39 -544.63,-279.39 -300.8,0 -544.64,125.07 -544.64,279.39 0,154.27 243.84,279.33 544.64,279.33 300.79,0 544.63,-125.06 544.63,-279.33z"/>
   <path id="path2559" class="fil0" d="M1815.53 1597.5c0,-168.34 -225.31,-304.77 -503.19,-304.77 -277.89,0 -503.14,136.43 -503.14,304.77 0,168.35 225.25,304.84 503.14,304.84 277.88,0 503.19,-136.49 503.19,-304.84z"/>
   <path id="path2567" class="fil0" d="M1791.99 1599.41c0,-123.56 -210.71,-223.75 -470.65,-223.75 -259.99,0 -470.7,100.19 -470.7,223.75 0,123.62 210.71,223.81 470.7,223.81 259.94,0 470.65,-100.19 470.65,-223.81z"/>
   <path id="path2575" class="fil1" d="M1709.05 1569.28c0,-112.13 -174.64,-203.03 -390.08,-203.03 -215.44,0 -390.07,90.9 -390.07,203.03 0,112.14 174.63,203.09 390.07,203.09 215.44,0 390.08,-90.95 390.08,-203.09z"/>
   <path id="path2583" class="fil0" d="M1658.21 1553.7c0,-87.95 -152.94,-159.23 -341.6,-159.23 -188.67,0 -341.54,71.28 -341.54,159.23 0,87.95 152.88,159.23 341.54,159.23 188.66,0 341.6,-71.28 341.6,-159.23z"/>
   <path id="path2591" class="fil1" d="M1584.68 1509.43c0,-66.08 -122.98,-119.69 -274.71,-119.69 -151.67,0 -274.65,53.62 -274.65,119.69 0,66.14 122.98,119.7 274.65,119.7 151.73,0 274.71,-53.56 274.71,-119.7z"/>
   <path id="path2599" class="fil0" d="M1538.51 1479.31c0,-44.79 -95.17,-81.03 -212.5,-81.03 -117.33,0 -212.43,36.24 -212.43,81.03 0,44.73 95.11,81.03 212.43,81.03 117.33,0 212.5,-36.3 212.5,-81.03z"/>
   <path id="path2607" class="fil0" d="M2025.09 2268.76c0,-4.91 -0.41,-9.7 -1.1,-14.43 -10.97,69.72 -100.36,124.08 -209.04,124.08 -108.67,0 -198.07,-54.36 -209.03,-124.08 -0.75,4.73 -1.1,9.52 -1.1,14.43 0,76.47 94.07,138.51 210.13,138.51 116.07,0 210.14,-62.04 210.14,-138.51z"/>
   <path id="path2615" class="fil0" d="M1479.3 69.86c-9.52,-12.07 -22.39,-22.4 -37.98,-31.17l0.06 1448.06c16.8,-9 29.9,-19.68 37.92,-31.8l0 -1385.09z"/>
   <path id="path2619" class="fil1" d="M1372.36 14.28c-14.89,-3.06 -30.42,-5.14 -46.46,-6.29 0,703.63 0,1211.38 0.06,1508.08 15.98,-1.15 31.45,-3.17 46.17,-6.06 26.37,-5.19 50.15,-13.04 69.25,-23.26l-0.06 -1448.06c-19.68,-10.96 -43.34,-19.16 -68.96,-24.41z"/>
   <path id="path2623" class="fil0" d="M1227.1 1510.53c32.31,6.18 66.36,7.79 98.86,5.54 -0.06,-296.7 -0.06,-804.45 -0.06,-1508.08 -32.9,-2.31 -66.83,-0.52 -98.57,5.48 -48.65,9.18 -91.71,27.93 -117.39,56.39l0 1385.09c28.91,28.92 71.22,46.87 117.16,55.58z"/>
   <path id="path2627" class="fil3 str2" d="M1479.3 69.86c-65.91,-83.63 -293.58,-84.03 -369.36,0l0 62.61c63.31,13.62 138.16,21.47 218.44,21.47 53.27,0 104.17,-3.46 150.92,-9.75l0 -74.33z"/>
   <path id="path2631" class="fil1" d="M1328.38 125.09c-35.49,0 -69.95,-1.56 -102.84,-4.45l0 28.86c32.89,2.88 67.35,4.44 102.84,4.44 53.27,0 104.17,-3.46 150.92,-9.75l0 -51.94c-46.75,6.29 -97.65,32.84 -150.92,32.84z"/>
  </g>
 </g>
</svg>
