<?xml version="1.0" encoding="UTF-8"?>
<!DOCTYPE svg PUBLIC "-//W3C//DTD SVG 1.1//EN" "http://www.w3.org/Graphics/SVG/1.1/DTD/svg11.dtd">
<!-- Creator: CorelDRAW -->
<svg xmlns="http://www.w3.org/2000/svg" xml:space="preserve" width="64mm" height="64mm" version="1.1" style="shape-rendering:geometricPrecision; text-rendering:geometricPrecision; image-rendering:optimizeQuality; fill-rule:evenodd; clip-rule:evenodd"
viewBox="0 0 6400 6400"
 xmlns:xlink="http://www.w3.org/1999/xlink"
 xmlns:xodm="http://www.corel.com/coreldraw/odm/2003">
 <defs>
  <style type="text/css">
   <![CDATA[
    .str1 {stroke:#FEFEFE;stroke-width:20;stroke-miterlimit:22.9256}
    .str0 {stroke:#EDAF02;stroke-width:20;stroke-miterlimit:22.9256}
    .str2 {stroke:#EDAF02;stroke-width:7.62;stroke-miterlimit:22.9256}
    .fil1 {fill:#FEFEFE;fill-rule:nonzero}
    .fil0 {fill:#EDAF02;fill-rule:nonzero}
    .fil2 {fill:red;fill-rule:nonzero}
   ]]>
  </style>
 </defs>
 <g id="Camada_x0020_1">
  <metadata id="CorelCorpID_0Corel-Layer"/>
  <g id="_2069556597488">
   <path id="path2475" class="fil0 str0" d="M5818.66 3050.52l-3186.76 -877.2c-186.18,-64.8 -368.02,-28 -545.63,110.6l-1550.15 1566.92c-10.15,8.93 -19.67,18.47 -28.55,28.5 20.63,89.12 85.55,169.27 194.75,240.38l3263.16 1031.02c326.19,46.88 541.63,27.78 646.6,-57.28l1300.23 -1960.4c-24.1,-33.8 -55.34,-61.29 -93.69,-82.54l0.04 0zm-5376.29 1345.82l221.22 716.2 3220.4 1252.11c231.63,83.4 459.15,20.85 682.47,-187.45l1141.62 -1814.49 264.38 -970.91c0.47,-9.54 0.75,-18.92 0.83,-28.12l-1108.75 1814c-160.62,256.61 -416.98,344.57 -768.91,263.85l-3669.73 -1133.76 16.47 88.57z"/>
   <path id="path2483" class="fil1 str1" d="M4855.05 3458c0,-504.97 -765.65,-914.33 -1710.2,-914.33 -944.44,0 -1710.08,409.36 -1710.08,914.33 0,504.96 765.64,914.32 1710.08,914.32 944.55,0 1710.2,-409.36 1710.2,-914.32z"/>
   <path id="path2491" class="fil0 str2" d="M4837.71 3561.21c0,-504.96 -765.65,-914.2 -1710.08,-914.2 -944.55,0 -1710.2,409.24 -1710.2,914.2 0,504.97 765.64,914.33 1710.2,914.33 944.43,0 1710.08,-409.36 1710.08,-914.33z"/>
   <path id="path2499" class="fil2" d="M4549.73 4533.42c0,-155.36 -190.97,-281.19 -426.59,-281.19 -235.61,0 -426.58,125.84 -426.58,281.19 0,155.24 190.97,281.19 426.58,281.19 235.62,0 426.59,-125.95 426.59,-281.19z"/>
   <path id="path2507" class="fil1 str1" d="M3697.03 4519.6c-0.35,4.56 -0.47,9.13 -0.47,13.82 0,155.24 190.97,281.19 426.59,281.19 233.85,0 424.47,-124.08 426.58,-277.79l0 219.91c-252.6,254.94 -706.6,262.09 -884.57,-28.59l31.87 -208.54z"/>
   <path id="path2511" class="fil1 str1" d="M4545.16 3449.33c0,-416.74 -648.25,-754.64 -1447.99,-754.64 -799.74,0 -1448,337.9 -1448,754.64 0,416.74 648.26,754.63 1448,754.63 799.74,0 1447.99,-337.89 1447.99,-754.63z"/>
   <path id="path2519" class="fil0 str2" d="M4518.33 3514.35c0,-395.65 -635.95,-716.32 -1420.34,-716.32 -784.39,0 -1420.23,320.67 -1420.23,716.32 0,395.65 635.83,716.44 1420.23,716.44 784.39,0 1420.34,-320.79 1420.34,-716.44z"/>
   <path id="path2527" class="fil1 str1" d="M4434.09 3598.59c0,-370.23 -587.45,-670.4 -1312.21,-670.4 -724.64,0 -1312.2,300.17 -1312.2,670.4 0,370.23 587.56,670.4 1312.2,670.4 724.76,0 1312.21,-300.17 1312.21,-670.4z"/>
   <path id="path2535" class="fil0 str2" d="M4311.78 3519.15c0,-331.68 -535.31,-600.56 -1195.52,-600.56 -660.31,0 -1195.51,268.88 -1195.51,600.56 0,331.69 535.2,600.57 1195.51,600.57 660.21,0 1195.52,-268.88 1195.52,-600.57z"/>
   <path id="path2543" class="fil1 str1" d="M4321.26 3397.66c0,-325.95 -528.74,-590.14 -1181.1,-590.14 -652.35,0 -1181.22,264.19 -1181.22,590.14 0,325.94 528.87,590.14 1181.22,590.14 652.36,0 1181.1,-264.2 1181.1,-590.14z"/>
   <path id="path2551" class="fil0 str2" d="M4208.44 3365.2c0,-313.28 -495.01,-567.17 -1105.65,-567.17 -610.65,0 -1105.65,253.88 -1105.65,567.17 0,313.18 495,567.06 1105.65,567.06 610.64,0 1105.65,-253.88 1105.65,-567.06z"/>
   <path id="path2559" class="fil0 str2" d="M4124.32 3229.3c0,-341.76 -457.4,-618.73 -1021.53,-618.73 -564.13,0 -1021.41,276.97 -1021.41,618.73 0,341.76 457.27,618.84 1021.41,618.84 564.13,0 1021.53,-277.09 1021.53,-618.84z"/>
   <path id="path2567" class="fil0 str2" d="M4076.51 3233.16c0,-250.84 -427.75,-454.23 -955.44,-454.23 -527.82,0 -955.57,203.39 -955.57,454.23 0,250.96 427.75,454.35 955.57,454.35 527.69,0 955.44,-203.39 955.44,-454.35z"/>
   <path id="path2575" class="fil1 str1" d="M3908.15 3172.01c0,-227.65 -354.53,-412.18 -791.89,-412.18 -437.36,0 -791.89,184.53 -791.89,412.18 0,227.64 354.53,412.29 791.89,412.29 437.36,0 791.89,-184.65 791.89,-412.29z"/>
   <path id="path2583" class="fil0 str2" d="M3804.94 3140.37c0,-178.55 -310.48,-323.25 -693.48,-323.25 -383,0 -693.36,144.7 -693.36,323.25 0,178.56 310.36,323.25 693.36,323.25 383,0 693.48,-144.69 693.48,-323.25z"/>
   <path id="path2591" class="fil1" d="M3655.67 3050.51c0,-134.15 -249.67,-242.99 -557.69,-242.99 -307.89,0 -557.57,108.84 -557.57,242.99 0,134.27 249.67,242.99 557.57,242.99 308.02,0 557.69,-108.72 557.69,-242.99z"/>
   <path id="path2599" class="fil0 str2" d="M3561.94 2989.35c0,-90.92 -193.2,-164.49 -431.39,-164.49 -238.19,0 -431.26,73.57 -431.26,164.49 0,90.8 193.08,164.5 431.26,164.5 238.19,0 431.39,-73.7 431.39,-164.5z"/>
   <path id="path2607" class="fil0 str2" d="M4549.73 4592c0,-9.96 -0.82,-19.68 -2.23,-29.29 -22.26,141.53 -203.74,251.9 -424.36,251.9 -220.61,0 -402.09,-110.37 -424.35,-251.9 -1.53,9.61 -2.23,19.33 -2.23,29.29 0,155.24 190.97,281.19 426.58,281.19 235.62,0 426.59,-125.95 426.59,-281.19z"/>
   <path id="path2615" class="fil0 str2" d="M3441.74 128.04c-19.34,-24.49 -45.46,-45.46 -77.1,-63.27l0.12 2939.69c34.09,-18.27 60.69,-39.95 76.98,-64.55l0 -2811.87z"/>
   <path id="path2619" class="fil1 str1" d="M3224.64 15.21c-30.23,-6.2 -61.75,-10.42 -94.32,-12.77 0,1428.43 0,2459.22 0.12,3061.54 32.45,-2.34 63.85,-6.44 93.72,-12.3 53.55,-10.54 101.82,-26.48 140.6,-47.22l-0.12 -2939.69c-39.95,-22.26 -87.99,-38.9 -140,-49.56z"/>
   <path id="path2623" class="fil0 str2" d="M2929.74 3052.73c65.61,12.54 134.73,15.82 200.7,11.25 -0.12,-602.32 -0.12,-1633.11 -0.12,-3061.54 -66.78,-4.69 -135.67,-1.05 -200.11,11.13 -98.77,18.63 -186.17,56.71 -238.31,114.47l0 2811.87c58.7,58.7 144.58,95.13 237.84,112.82z"/>
   <path id="path2627" class="fil0 str2" d="M3441.74 128.04c-133.8,-169.77 -596,-170.59 -749.84,0l0 127.12c128.53,27.65 280.49,43.59 443.46,43.59 108.14,0 211.47,-7.03 306.38,-19.81l0 -150.9z"/>
   <path id="path2631" class="fil1 str1" d="M3135.36 240.16c-72.05,0 -142,-3.16 -208.78,-9.02l0 58.58c66.78,5.86 136.73,9.02 208.78,9.02 108.14,0 211.48,-7.03 306.38,-19.8l0 -105.44c-94.9,12.77 -198.24,66.66 -306.38,66.66z"/>
  </g>
 </g>
</svg>
