<?xml version="1.0" encoding="UTF-8"?>
<!DOCTYPE svg PUBLIC "-//W3C//DTD SVG 1.1//EN" "http://www.w3.org/Graphics/SVG/1.1/DTD/svg11.dtd">
<!-- Creator: CorelDRAW -->
<svg xmlns="http://www.w3.org/2000/svg" xml:space="preserve" width="96.592mm" height="31.526mm" version="1.1" style="shape-rendering:geometricPrecision; text-rendering:geometricPrecision; image-rendering:optimizeQuality; fill-rule:evenodd; clip-rule:evenodd"
viewBox="0 0 9659.2 3152.6"
 xmlns:xlink="http://www.w3.org/1999/xlink"
 xmlns:xodm="http://www.corel.com/coreldraw/odm/2003">
 <defs>
  <style type="text/css">
   <![CDATA[
    .str0 {stroke:#EDAF02;stroke-width:20;stroke-miterlimit:22.9256}
    .str1 {stroke:#EDAF02;stroke-width:7.62;stroke-miterlimit:22.9256}
    .fil1 {fill:#355C7D;fill-rule:nonzero}
    .fil0 {fill:#EDAF02;fill-rule:nonzero}
    .fil3 {fill:#EDAF02;fill-rule:nonzero}
    .fil2 {fill:red;fill-rule:nonzero}
   ]]>
  </style>
 </defs>
 <g id="Camada_x0020_1">
  <metadata id="CorelCorpID_0Corel-Layer"/>
  <g id="_2577142177040">
   <g>
    <path id="path2475" class="fil0 str0" d="M2649.29 1503l-1569.77 -432.1c-91.71,-31.92 -181.28,-13.79 -268.77,54.48l-763.59 771.85c-5,4.4 -9.69,9.1 -14.06,14.04 10.16,43.9 42.14,83.38 95.93,118.41l1607.4 507.87c160.68,23.09 266.8,13.68 318.51,-28.22l640.48 -965.67c-11.87,-16.65 -27.26,-30.19 -46.15,-40.66l0.02 0zm-2648.31 662.94l108.97 352.79 1586.34 616.78c114.1,41.08 226.17,10.27 336.18,-92.34l562.35 -893.8 130.23 -478.26c0.23,-4.7 0.37,-9.32 0.41,-13.85l-546.16 893.56c-79.12,126.4 -205.4,169.73 -378.76,129.97l-1807.67 -558.48 8.11 43.63z"/>
    <path id="path2483" class="fil1" d="M2174.63 1703.72c0,-248.74 -377.16,-450.39 -842.43,-450.39 -465.22,0 -842.37,201.65 -842.37,450.39 0,248.74 377.15,450.39 842.37,450.39 465.27,0 842.43,-201.65 842.43,-450.39z"/>
    <path id="path2491" class="fil0 str1" d="M2166.08 1754.56c0,-248.74 -377.15,-450.33 -842.37,-450.33 -465.27,0 -842.43,201.59 -842.43,450.33 0,248.74 377.15,450.39 842.43,450.39 465.22,0 842.37,-201.65 842.37,-450.39z"/>
    <path id="path2499" class="fil2" d="M2024.23 2233.46c0,-76.52 -94.07,-138.51 -210.14,-138.51 -116.06,0 -210.13,61.99 -210.13,138.51 0,76.47 94.07,138.51 210.13,138.51 116.07,0 210.14,-62.04 210.14,-138.51z"/>
    <path id="path2507" class="fil1" d="M1604.2 2226.65c-0.18,2.25 -0.24,4.5 -0.24,6.81 0,76.47 94.08,138.51 210.14,138.51 115.19,0 209.09,-61.12 210.13,-136.83l0 108.32c-124.43,125.59 -348.07,129.11 -435.73,-14.08l15.7 -102.73z"/>
    <path id="path2511" class="fil1" d="M2021.98 1699.45c0,-205.28 -319.33,-371.73 -713.27,-371.73 -393.95,0 -713.27,166.45 -713.27,371.73 0,205.28 319.32,371.72 713.27,371.72 393.94,0 713.27,-166.44 713.27,-371.72z"/>
    <path id="path2519" class="fil0 str1" d="M2008.76 1731.48c0,-194.9 -313.26,-352.86 -699.65,-352.86 -386.38,0 -699.59,157.96 -699.59,352.86 0,194.89 313.21,352.91 699.59,352.91 386.39,0 699.65,-158.02 699.65,-352.91z"/>
    <path id="path2527" class="fil1" d="M1967.26 1772.98c0,-182.38 -289.37,-330.24 -646.38,-330.24 -356.95,0 -646.38,147.86 -646.38,330.24 0,182.37 289.43,330.23 646.38,330.23 357.01,0 646.38,-147.86 646.38,-330.23z"/>
    <path id="path2535" class="fil0 str1" d="M1907.01 1733.84c0,-163.38 -263.68,-295.83 -588.89,-295.83 -325.27,0 -588.9,132.45 -588.9,295.83 0,163.39 263.63,295.84 588.9,295.84 325.21,0 588.89,-132.45 588.89,-295.84z"/>
    <path id="path2543" class="fil1" d="M1911.69 1674c0,-160.56 -260.46,-290.7 -581.8,-290.7 -321.35,0 -581.86,130.14 -581.86,290.7 0,160.55 260.51,290.69 581.86,290.69 321.34,0 581.8,-130.14 581.8,-290.69z"/>
    <path id="path2551" class="fil0 str1" d="M1856.11 1658.01c0,-154.32 -243.84,-279.39 -544.63,-279.39 -300.8,0 -544.64,125.07 -544.64,279.39 0,154.27 243.84,279.33 544.64,279.33 300.79,0 544.63,-125.06 544.63,-279.33z"/>
    <path id="path2559" class="fil0 str1" d="M1814.67 1591.06c0,-168.34 -225.31,-304.77 -503.19,-304.77 -277.89,0 -503.14,136.43 -503.14,304.77 0,168.35 225.25,304.84 503.14,304.84 277.88,0 503.19,-136.49 503.19,-304.84z"/>
    <path id="path2567" class="fil0 str1" d="M1791.13 1592.97c0,-123.56 -210.71,-223.75 -470.65,-223.75 -259.99,0 -470.7,100.19 -470.7,223.75 0,123.62 210.71,223.81 470.7,223.81 259.94,0 470.65,-100.19 470.65,-223.81z"/>
    <path id="path2575" class="fil1" d="M1708.19 1562.84c0,-112.13 -174.64,-203.03 -390.08,-203.03 -215.44,0 -390.07,90.9 -390.07,203.03 0,112.14 174.63,203.09 390.07,203.09 215.44,0 390.08,-90.95 390.08,-203.09z"/>
    <path id="path2583" class="fil0 str1" d="M1657.35 1547.26c0,-87.95 -152.94,-159.23 -341.6,-159.23 -188.67,0 -341.54,71.28 -341.54,159.23 0,87.95 152.88,159.23 341.54,159.23 188.66,0 341.6,-71.28 341.6,-159.23z"/>
    <path id="path2591" class="fil1" d="M1583.82 1502.99c0,-66.08 -122.98,-119.69 -274.71,-119.69 -151.67,0 -274.65,53.62 -274.65,119.69 0,66.14 122.98,119.7 274.65,119.7 151.73,0 274.71,-53.56 274.71,-119.7z"/>
    <path id="path2599" class="fil0 str1" d="M1537.65 1472.87c0,-44.79 -95.17,-81.03 -212.5,-81.03 -117.33,0 -212.43,36.24 -212.43,81.03 0,44.73 95.11,81.03 212.43,81.03 117.33,0 212.5,-36.3 212.5,-81.03z"/>
    <path id="path2607" class="fil0 str1" d="M2024.23 2262.32c0,-4.91 -0.41,-9.7 -1.1,-14.43 -10.97,69.72 -100.36,124.08 -209.04,124.08 -108.67,0 -198.07,-54.36 -209.03,-124.08 -0.75,4.73 -1.1,9.52 -1.1,14.43 0,76.47 94.07,138.51 210.13,138.51 116.07,0 210.14,-62.04 210.14,-138.51z"/>
    <path id="path2615" class="fil0 str1" d="M1478.44 63.42c-9.52,-12.07 -22.39,-22.4 -37.98,-31.17l0.06 1448.06c16.8,-9 29.9,-19.68 37.92,-31.8l0 -1385.09z"/>
    <path id="path2619" class="fil1" d="M1371.5 7.84c-14.89,-3.06 -30.42,-5.14 -46.46,-6.29 0,703.63 0,1211.38 0.06,1508.08 15.98,-1.15 31.45,-3.17 46.17,-6.06 26.37,-5.19 50.15,-13.04 69.25,-23.26l-0.06 -1448.06c-19.68,-10.96 -43.34,-19.16 -68.96,-24.41z"/>
    <path id="path2623" class="fil0 str1" d="M1226.24 1504.09c32.31,6.18 66.36,7.79 98.86,5.54 -0.06,-296.7 -0.06,-804.45 -0.06,-1508.08 -32.9,-2.31 -66.83,-0.52 -98.57,5.48 -48.65,9.18 -91.71,27.93 -117.39,56.39l0 1385.09c28.91,28.92 71.22,46.87 117.16,55.58z"/>
    <path id="path2627" class="fil0 str1" d="M1478.44 63.42c-65.91,-83.63 -293.58,-84.03 -369.36,0l0 62.61c63.31,13.62 138.16,21.47 218.44,21.47 53.27,0 104.17,-3.46 150.92,-9.75l0 -74.33z"/>
    <path id="path2631" class="fil1" d="M1327.52 118.65c-35.49,0 -69.95,-1.56 -102.84,-4.45l0 28.86c32.89,2.88 67.35,4.44 102.84,4.44 53.27,0 104.17,-3.46 150.92,-9.75l0 -51.94c-46.75,6.29 -97.65,32.84 -150.92,32.84z"/>
   </g>
   <path class="fil3" d="M3089.69 1162.91l465.24 0 0 931.27c0,72.84 11.75,121.01 34.85,145.29 23.5,24.28 69.71,36.03 138.64,36.03l23.89 0 0 454.67 -123.76 0c-169.96,0 -301.93,-49.74 -396.71,-148.82 -94.77,-99.08 -142.15,-236.53 -142.15,-412.37l0 -1006.07zm1218.32 422.95l0 1144.31 -429.99 0 0 -1144.31 429.99 0zm-212.65 -509.89c58.36,0 108.48,20.36 151.17,61.48 42.69,40.73 63.83,89.29 63.83,145.29 0,59.53 -19.97,108.87 -60.31,146.86 -40.33,38.38 -91.63,57.57 -154.69,57.57 -62.65,0 -114.35,-19.19 -154.69,-57.57 -40.33,-37.99 -60.31,-87.33 -60.31,-146.86 0,-56 21.15,-104.56 63.84,-145.29 42.69,-41.12 92.81,-61.48 151.16,-61.48zm1483.85 1654.2l-430 0 0 -646.17c0,-65.8 -26.63,-98.69 -80.28,-98.69 -52.87,0 -79.5,32.89 -79.5,98.69l0 646.17 -429.99 0 0 -638.34c0,-148.82 49.34,-274.53 148.03,-376.35 98.69,-102.21 219.3,-153.12 362.64,-153.12 163.3,0 294.5,59.13 393.18,177.79 77.15,92.43 115.92,221.27 115.92,386.14l0 603.88zm680.24 -1567.26l0 1567.26 -429.99 0 0 -1567.26 429.99 0zm657.14 422.95l-209.91 416.68 311.73 727.63 -474.64 0 -268.65 -747.21 195.03 -397.1 446.44 0zm1311.93 -422.95l0 1016.25c0,179.36 -53.26,322.7 -160.17,430 -106.52,107.3 -248.68,160.96 -426.08,160.96 -177.02,0 -312.13,-52.09 -405.72,-156.26 -93.6,-104.17 -140.59,-254.16 -140.59,-449.58l0 -1001.37 465.24 0 0 1000.19c0,95.95 34.07,144.12 102.6,144.12 66.19,0 99.48,-48.17 99.48,-144.12l0 -1000.19 465.24 0zm655.18 1990.21l-430 0 0 -954.38c0,-175.44 45.82,-318.39 137.85,-428.43 52.87,-63.44 120.23,-113.96 201.68,-151.56 81.46,-37.59 165.27,-56.39 251.03,-56.39 170.75,0 314.86,57.57 431.96,172.31 117.09,114.75 175.84,255.34 175.84,422.17 0,162.13 -58.36,302.33 -174.67,420.21 -116.31,117.87 -253.77,176.62 -413.16,176.62 -25.84,0 -64.22,-2.35 -114.74,-7.44l0 -473.08c35.24,27.41 70.49,41.12 105.74,41.12 44.64,0 82.63,-16.45 114.35,-49.34 31.72,-32.9 47.78,-71.67 47.78,-116.71 0,-45.43 -16.45,-83.8 -49.35,-115.53 -33.28,-31.72 -72.45,-47.38 -118.66,-47.38 -110.43,0 -165.65,76.36 -165.65,229.49l0 938.32z"/>
  </g>
 </g>
</svg>
